<svg height="51" viewBox="0 0 53 51" width="53" xmlns="http://www.w3.org/2000/svg"><g fill="none" fill-rule="evenodd"><rect fill="#ff462d" height="4" rx="2" width="34" y="7"/><rect fill="#ff462d" height="4" rx="2" transform="matrix(-1 0 0 1 34 0)" width="34" y="20"/><rect fill="#b3efff" height="4" rx="2" width="25" y="14"/><rect fill="#b3efff" height="4" rx="2" transform="matrix(-1 0 0 1 25 0)" width="25" y="27"/><rect fill="#b3efff" height="4" rx="2" transform="matrix(-1 0 0 1 18 0)" width="18"/><rect fill="#b3efff" height="4" rx="2" width="15" x="38" y="7"/><rect fill="#b3efff" height="4" rx="2" transform="matrix(-1 0 0 1 91 0)" width="15" x="38" y="20"/><g fill="#ff462d"><rect height="4" rx="2" width="25" x="28" y="14"/><rect height="4" rx="2" transform="matrix(-1 0 0 1 81 0)" width="25" x="28" y="27"/><rect height="4" rx="2" transform="matrix(-1 0 0 1 74 0)" width="32" x="21"/><rect height="4" rx="2" transform="matrix(-1 0 0 1 72 0)" width="34" x="19" y="34"/><rect height="4" rx="2" width="34" x="19" y="47"/></g><rect fill="#b3efff" height="4" rx="2" transform="matrix(-1 0 0 1 81 0)" width="25" x="28" y="41"/><rect fill="#b3efff" height="4" rx="2" transform="matrix(-1 0 0 1 15 0)" width="15" y="34"/><rect fill="#b3efff" height="4" rx="2" width="15" y="47"/><rect fill="#ff462d" height="4" rx="2" transform="matrix(-1 0 0 1 25 0)" width="25" y="41"/></g></svg>