<svg height="93" viewBox="0 0 97 93" width="97" xmlns="http://www.w3.org/2000/svg"><g fill="none" fill-rule="evenodd"><rect fill="#046b99" height="93" rx="6" width="97"/><g transform="translate(6 5)"><rect fill="#ff462d" height="6" rx="3" width="54" y="11"/><rect fill="#ff462d" height="6" rx="3" transform="matrix(-1 0 0 1 54 0)" width="54" y="33"/><rect fill="#b3efff" height="6" rx="3" width="40" y="22"/><rect fill="#b3efff" height="6" rx="3" transform="matrix(-1 0 0 1 40 0)" width="40" y="44"/><rect fill="#b3efff" height="6" rx="3" transform="matrix(-1 0 0 1 28 0)" width="28"/><rect fill="#b3efff" height="6" rx="3" width="25" x="60" y="11"/><rect fill="#b3efff" height="6" rx="3" transform="matrix(-1 0 0 1 145 0)" width="25" x="60" y="33"/><g fill="#ff462d"><rect height="6" rx="3" width="40" x="45" y="22"/><rect height="6" rx="3" transform="matrix(-1 0 0 1 130 0)" width="40" x="45" y="44"/><rect height="6" rx="3" transform="matrix(-1 0 0 1 119 0)" width="51" x="34"/><rect height="6" rx="3" transform="matrix(-1 0 0 1 116 0)" width="54" x="31" y="55"/><rect height="6" rx="3" width="54" x="31" y="76"/></g><rect fill="#b3efff" height="6" rx="3" transform="matrix(-1 0 0 1 130 0)" width="40" x="45" y="66"/><rect fill="#b3efff" height="6" rx="3" transform="matrix(-1 0 0 1 25 0)" width="25" y="55"/><rect fill="#b3efff" height="6" rx="3" width="25" y="76"/><rect fill="#ff462d" height="6" rx="3" transform="matrix(-1 0 0 1 40 0)" width="40" y="66"/></g></g></svg>