<svg height="109" viewBox="0 0 36 109" width="36" xmlns="http://www.w3.org/2000/svg"><g fill="none" fill-rule="evenodd" transform="matrix(-1 0 0 -1 33 106)"><rect fill="#b3efff" height="3" rx="1.5" width="16" x="15" y="2"/><g fill="#ff462d"><rect height="3" rx="1.5" width="9" x="18" y="10"/><rect height="3" rx="1.5" width="9" x="1" y="2"/><rect height="3" rx="1.5" width="13" x="15" y="46"/></g><path d="m0 0c0 24.1211107 30 24.1211107 30 51.1317294s-30 27.0106187-30 51.8682706" stroke="#b3efff" stroke-linecap="round" stroke-linejoin="round" stroke-width="6"/><rect fill="#b3efff" height="3" rx="1.5" width="10" x="4" y="10"/><rect fill="#b3efff" height="3" rx="1.5" width="9" x="1" y="46"/><rect fill="#ff462d" height="3" rx="1.5" width="14" x="1" y="38"/><rect fill="#b3efff" height="3" rx="1.5" width="9" x="20" y="38"/><rect fill="#b3efff" height="3" rx="1.5" width="10" x="18" y="54"/><rect fill="#ff462d" height="3" rx="1.5" width="13" x="1" y="54"/><rect fill="#b3efff" height="3" rx="1.5" width="6" x="4" y="62"/><rect fill="#ff462d" height="3" rx="1.5" width="13" x="15" y="62"/><rect fill="#ff462d" height="3" rx="1.5" width="10" x="21" y="99"/><rect fill="#b3efff" height="3" rx="1.5" width="17" y="99"/><rect fill="#b3efff" height="3" rx="1.5" width="14" x="15" y="91"/><rect fill="#ff462d" height="3" rx="1.5" width="7" x="3" y="91"/><path d="m0 0c0 24.1211107 30 24.1211107 30 51.1317294s-30 27.0106187-30 51.8682706" stroke="#ff462d" stroke-linecap="round" stroke-linejoin="round" stroke-width="6" transform="matrix(-1 0 0 1 30 0)"/><path d="m30 51c0 27.0792173-30 27.0792173-30 52" stroke="#b3efff" stroke-linecap="round" stroke-linejoin="round" stroke-width="6"/></g></svg>