<svg height="345" viewBox="0 0 114 345" width="114" xmlns="http://www.w3.org/2000/svg"><g fill="none" fill-rule="evenodd" transform="translate(9 9)"><rect fill="#b3efff" height="10" rx="5" width="51" x="48" y="7"/><g fill="#ff462d"><rect height="10" rx="5" width="28" x="58" y="32"/><rect height="10" rx="5" width="31" x="2" y="7"/><rect height="10" rx="5" width="41" x="48" y="147"/></g><path d="m0 0c0 76.5 95.4492188 76.5 95.4492188 162.164063 0 85.664062-95.4492188 85.664062-95.4492188 164.499999" stroke="#b3efff" stroke-linecap="round" stroke-linejoin="round" stroke-width="18"/><rect fill="#b3efff" height="10" rx="5" width="31" x="12" y="32"/><rect fill="#b3efff" height="10" rx="5" width="31" x="2" y="147"/><rect fill="#ff462d" height="10" rx="5" width="46" x="2" y="122"/><rect fill="#b3efff" height="10" rx="5" width="28" x="63" y="122"/><rect fill="#b3efff" height="10" rx="5" width="31" x="58" y="172"/><rect fill="#ff462d" height="10" rx="5" width="41" x="2" y="172"/><rect fill="#b3efff" height="10" rx="5" width="21" x="12" y="197"/><rect fill="#ff462d" height="10" rx="5" width="41" x="48" y="197"/><rect fill="#ff462d" height="10" rx="5" width="30" x="68" y="313"/><rect fill="#b3efff" height="10" rx="5" width="53" y="313"/><rect fill="#b3efff" height="10" rx="5" width="43" x="48" y="288"/><rect fill="#ff462d" height="10" rx="5" width="25" x="8" y="288"/><path d="m0 0c0 76.5 95.4492188 76.5 95.4492188 162.164063 0 85.664062-95.4492188 85.664062-95.4492188 164.499999" stroke="#ff462d" stroke-linecap="round" stroke-linejoin="round" stroke-width="18" transform="matrix(-1 0 0 1 95.449218 0)"/><path d="m95.4492188 162.164063c0 85.664062-95.4492188 85.664062-95.4492188 164.5" stroke="#b3efff" stroke-linecap="round" stroke-linejoin="round" stroke-width="18"/></g></svg>