<svg height='100px' width='100px'  fill="#000000" xmlns="http://www.w3.org/2000/svg" data-name="Capa 2" viewBox="0 0 100 100" x="0px" y="0px"><title>Artboard 8</title><path d="M20.9,68.09a.79.79,0,0,0,.79.79H36.87a.79.79,0,1,0,0-1.58H21.69A.79.79,0,0,0,20.9,68.09Z"></path><path d="M26.65,42.29a.92.92,0,0,0,0,1.84A.92.92,0,0,0,26.65,42.29Z"></path><path d="M31.91,44.13a.92.92,0,0,0,0-1.84A.92.92,0,0,0,31.91,44.13Z"></path><path d="M46.62,25a.92.92,0,0,0,0,1.84A.92.92,0,0,0,46.62,25Z"></path><path d="M52.69,26.79a.92.92,0,0,0,0-1.84A.92.92,0,0,0,52.69,26.79Z"></path><path d="M52.47,50.09l-1.93-.2a9.56,9.56,0,0,0-2.14,0l-1.57.19a.79.79,0,0,0,.09,1.57H47l1.57-.19a8,8,0,0,1,1.79,0l1.93.2a.79.79,0,0,0,.17-1.57Z"></path><path d="M73.84,65.51a9.37,9.37,0,0,1-9.36-9.36.79.79,0,1,0-1.58,0A11,11,0,0,0,73.84,67.09a.79.79,0,0,0,0-1.58Z"></path><path d="M67.64,38.68a1,1,0,0,0,0,2A1,1,0,0,0,67.64,38.68Z"></path><path d="M73.28,38.68a1,1,0,0,0,0,2A1,1,0,0,0,73.28,38.68Z"></path><path d="M80.94,51.49v0a1,1,0,0,0-.32-1.32C79,49,77.25,47.89,75.47,46.74A10.92,10.92,0,1,0,64.09,28.17v-7a14.2,14.2,0,0,0-28.4,0l-.23,8.1A12.4,12.4,0,0,0,17.07,40.08l-.41,23.27a.79.79,0,0,0,.64.79h.15V68a4.77,4.77,0,0,0,.95,2.86l-2.32,15a.79.79,0,0,0,.78.91h4.95v3.33a3,3,0,0,0,6,0V87.51h3v2.57a3,3,0,0,0,6,0V86.75h4.89v3a3.32,3.32,0,0,0,6.63,0v-10H51v10a3.32,3.32,0,0,0,6.63,0v-10h1.11a51.76,51.76,0,0,0,.83,6.88.79.79,0,0,0,.77.64h.45v2.84a3,3,0,0,0,3,3h.32a3,3,0,0,0,3-3V87.23h.36a.79.79,0,0,0,.77-.6l2.22-9.21,2.21,9.21a.79.79,0,0,0,.77.6h.36v2.84a3,3,0,0,0,3,3h.32a3,3,0,0,0,3-3V87.23h.45a.79.79,0,0,0,.77-.64,53.5,53.5,0,0,0,.93-10.11,55.61,55.61,0,0,0-.42-6.8,5.12,5.12,0,0,0,1.32-3.43v-7a.79.79,0,0,0,.79-.79V57A6.69,6.69,0,0,0,80.94,51.49Zm-4.1.14a5.32,5.32,0,0,1-1.62-.72,6.17,6.17,0,0,0-1.43-.72V47.65c1.89,1.16,3.68,2.32,5.42,3.44A3,3,0,0,1,76.85,51.63Zm-35-12.93a3.61,3.61,0,0,1,1.3-.25h.2v2.94a5.1,5.1,0,0,0-1.41.7v-2A12.45,12.45,0,0,0,41.81,38.7Zm-.36-1.84a12.3,12.3,0,0,0-.77-2.09A4.81,4.81,0,0,0,42.3,32V31a11.68,11.68,0,0,0,4.25,2.19v3.66Zm.84-8v-5c6.66-.15,12.5-2.25,15.19-5.13v9.57a10.13,10.13,0,0,1-15.19.53Zm2.59,9.57h2.45a.79.79,0,0,0,.79-.79V33.51a11.73,11.73,0,0,0,1.53.1,11.53,11.53,0,0,0,1.8-.15v4.19a.79.79,0,0,0,.79.79h2.18v2.7H44.88ZM53,36.86V33.1a11.82,11.82,0,0,0,4.45-2.5V32c0,1,1,2.35,2.15,3.51a10.93,10.93,0,0,0-.1,1.31Zm3,1.58h0c1.38.51,2.66,1,3.9,1.55a11,11,0,0,0,4,5.8l-5-2.14h0A5.18,5.18,0,0,0,56,41.37Zm4.22,12.88-.61-5.75,0-.07c1.61.5,4.67,1.86,7.53,3.15v1.69H63.7A6.66,6.66,0,0,0,60.23,51.32Zm7.69.6a.79.79,0,0,0,.79-.79V47.82a10.07,10.07,0,0,0,3.5,0v3.31a.79.79,0,0,0,.79.79h.83a4.43,4.43,0,0,1,.53.31l.19.13a4.27,4.27,0,0,1-8.3-.43ZM78.68,32.57A9.36,9.36,0,1,1,61.1,37c0-.11,0-.23,0-.34h7.12a5.28,5.28,0,0,0,4.28-2.22v1.43a.79.79,0,0,0,.24.56.82.82,0,0,0,.57.22C76.23,36.63,77.89,34.45,78.68,32.57ZM77.55,31c-.22.85-1.08,3.52-3.45,4.07V30.84a.79.79,0,0,0-.71-.78.8.8,0,0,0-.85.64c0,.18-.88,4.43-4.3,4.43H61.3A9.34,9.34,0,0,1,77.55,31ZM37.27,21.14a12.63,12.63,0,0,1,25.25,0v8.4a10.93,10.93,0,0,0-2.46,4.13,3.44,3.44,0,0,1-1-1.64V28.88l0,0h0V15.24a.79.79,0,1,0-1.58,0c0,3.71-7.62,7.09-16,7.09a.79.79,0,0,0-.79.79V32a2.86,2.86,0,0,1-.85,1.28A12.5,12.5,0,0,0,37,30.25ZM18.32,58.84l.33-18.75a10.84,10.84,0,0,1,21.67,0V58.72a73.1,73.1,0,0,1-2.78-9.18V35a.79.79,0,0,0-.79-.79l-.19,0h0a.79.79,0,0,0-.92.63c0,.15-.68,3.35-3.17,4V35a.79.79,0,0,0-1.56-.14s-.79,4.09-4,4.09H22.18a.79.79,0,0,0-.79.79.78.78,0,0,0,0,.22v9.62A79.93,79.93,0,0,1,18.32,58.84ZM38,57a4.73,4.73,0,0,0-.2-.81c.59,1.79,1.21,3.61,1.71,5v5.55Zm-.21-.83,0,0h0ZM31.09,40.27a.85.85,0,0,0,.57.22A5.23,5.23,0,0,0,36,38v8.35l0,0A8.66,8.66,0,0,1,23,46.73V40.49h3.91a4.94,4.94,0,0,0,3.94-2V39.7A.79.79,0,0,0,31.09,40.27Zm-5,10.24v2.6H24.55a.78.78,0,0,0-.38.1,4.61,4.61,0,0,0-1.69.72,5.6,5.6,0,0,0-.76.11A24.68,24.68,0,0,0,23,49.54v-.69A10.27,10.27,0,0,0,26.12,50.51Zm.53,4.18h.26a.79.79,0,0,0,.79-.79v-3a10.17,10.17,0,0,0,1.58.14,10.3,10.3,0,0,0,1.58-.12v3a.79.79,0,0,0,.79.79h1.5a3.94,3.94,0,0,1-7.73,0Zm5.78-1.58v-2.6a10.22,10.22,0,0,0,3.53-2v1a25.54,25.54,0,0,0,1.18,4.59,5.44,5.44,0,0,0-1.07-.21,4.61,4.61,0,0,0-1.68-.72.78.78,0,0,0-.38-.1H32.43Zm-12,4.5L19,66.81V61.44C19.44,60.34,19.95,59,20.45,57.61Zm4.33,33.87a1.4,1.4,0,0,1-1.31-.92H26.1A1.4,1.4,0,0,1,24.79,91.48Zm1.4-2.5h-2.8V86.75h.18a.79.79,0,0,0,.79.76h1.83Zm7.58,2.5a1.4,1.4,0,0,1-1.31-.92h2.62A1.4,1.4,0,0,1,33.77,91.48Zm1.4-2.5h-2.8V87.51h2.26a.78.78,0,0,0,.54-.22Zm.25-3.81V74.92a.79.79,0,0,0-1.58,0v11h-8.7v-11a.79.79,0,1,0-1.58,0V85.17H17.78l4.32-27.9A3,3,0,0,1,23.86,55a5.52,5.52,0,0,0,10.83,0,3,3,0,0,1,1.76,2.31l4.32,27.9Zm6.11-5.46h.11v.73ZM45,91.48a1.74,1.74,0,0,1-1.68-1.3h3.35A1.74,1.74,0,0,1,45,91.48Zm1.74-2.88H43.22V79.71h3.48Zm7.66,2.88a1.74,1.74,0,0,1-1.68-1.3H56A1.74,1.74,0,0,1,54.36,91.48ZM56.1,88.6H52.62V79.71H56.1ZM41.28,78.14l-1.13-7.27A4.77,4.77,0,0,0,41.1,68V64.14h.13a.79.79,0,0,0,.65-.78V44.26a3.62,3.62,0,0,1,3-1.54h9.58a3.63,3.63,0,0,1,3.61,3.06l.72,6.74A6.67,6.67,0,0,0,57,57v1.41a.79.79,0,0,0,.79.79v7a5.11,5.11,0,0,0,1.32,3.43,55.57,55.57,0,0,0-.42,6.8c0,.55,0,1.1,0,1.65ZM59.5,66.59c0-.11,0-.21,0-.33v-7h1Zm4.64,24.9h-.32a1.4,1.4,0,0,1-1.37-1.1H65.5A1.4,1.4,0,0,1,64.14,91.48Zm1.4-2.68H62.42V87.23h3.12ZM77.1,91.48h-.32a1.4,1.4,0,0,1-1.37-1.1h3.05A1.4,1.4,0,0,1,77.1,91.48Zm1.4-2.68H75.38V87.23H78.5Zm1.38-3.15H74.06l-2.84-11.8a.79.79,0,0,0-1.53,0l-2.84,11.8H61a52.33,52.33,0,0,1-.78-9.17,53.83,53.83,0,0,1,.47-7.1H80.19a53.84,53.84,0,0,1,.47,7.1A52.34,52.34,0,0,1,79.88,85.66Zm1.57-19.4a3.4,3.4,0,0,1,0,.35l-.95-7.37h1Zm.9-8.6H79.58a.79.79,0,0,0-.78.89L80,67.81H60.93l1.19-9.26a.79.79,0,0,0-.78-.89H58.57V57a5.13,5.13,0,0,1,5.13-5.13h1A5.86,5.86,0,0,0,76,53l.36.12a3.41,3.41,0,0,0,1,.16,4.69,4.69,0,0,0,2.35-.69A5.12,5.12,0,0,1,82.35,57Z"></path></svg>