<svg height='100px' width='100px'  fill="#040a0c" xmlns="http://www.w3.org/2000/svg" xmlns:xlink="http://www.w3.org/1999/xlink" version="1.1" x="0px" y="0px" viewBox="0 0 100 100" enable-background="new 0 0 100 100" xml:space="preserve"><path d="M81.551,56.045c10.126,2.073,17.553,10.992,17.553,21.73c0,12.273-9.951,22.225-22.226,22.225  c-10.458,0-19.437-7.45-21.802-17.182c-4.654,2.242-9.417,3.508-13.884,3.508c-4.288,0-7.744-0.756-11.651-2.131l-3.416,1.726  C7.449,78.83,0,59.501,0,41.631C0,16.179,18.639,0,41.633,0c22.992,0,41.631,15.376,41.631,41.631  C83.266,45.505,82.682,50.989,81.551,56.045z M76.878,59.413c-10.088,0-18.269,8.178-18.269,18.267  c0,10.09,8.181,18.27,18.269,18.27c10.089,0,18.271-8.18,18.271-18.27C95.146,67.591,86.967,59.413,76.878,59.413z M70.611,56.279  c1.291-4.543,1.896-9.287,1.896-13.841c0.002-6.476-1.498-11.801-4.024-16.064c0,0-5.906,12.055-25.021,19.336  c-13.08,4.979-29.512,4.875-29.512,4.875c1.031,20.409,12.397,31.683,27.234,31.683c4.729,0,8.565-1.151,12.91-3.761l0.033,0.054  c-0.009-0.246-0.014-0.49-0.014-0.736c0-10.321,7.021-19.004,16.549-21.53L70.611,56.279z"></path><path d="M35.147,56.622c0,2.632-2.134,4.767-4.765,4.767c-2.631,0-4.763-2.135-4.763-4.767c0-2.629,2.131-4.763,4.763-4.763  C33.014,51.859,35.147,53.993,35.147,56.622z"></path><circle cx="58.88" cy="50.44" r="3.695"></circle><circle cx="68.087" cy="68.167" r="3.067"></circle><circle cx="81.295" cy="71.547" r="3.811"></circle><path d="M45.708,70.818c-0.904,0-1.808-0.137-2.707-0.409c-0.834-0.255-1.307-1.14-1.052-1.974c0.253-0.836,1.138-1.308,1.972-1.055  c1.958,0.6,3.914,0.212,5.98-1.178c0.724-0.489,1.707-0.297,2.195,0.429c0.486,0.726,0.297,1.707-0.43,2.194  C49.697,70.152,47.701,70.818,45.708,70.818z"></path><path d="M72.512,89.885c-1.646,0-3.408-0.346-5.234-1.023c-2.91-1.08-4.938-2.868-6.023-5.313c-1.926-4.334-0.068-9.104,0.012-9.302  c0.305-0.766,1.147-1.17,1.935-0.928l19.353,5.964c0.404,0.124,0.738,0.403,0.936,0.774s0.236,0.807,0.109,1.209  C82.664,84.247,79.146,89.885,72.512,89.885z M63.809,76.814c-0.297,1.375-0.52,3.541,0.344,5.467  c0.729,1.627,2.15,2.845,4.229,3.615c1.473,0.547,2.861,0.824,4.131,0.824c4.156,0,6.42-3.048,7.422-4.938L63.809,76.814z"></path></svg>