<svg height='100px' width='100px'  fill="#000000" xmlns="http://www.w3.org/2000/svg" xmlns:xlink="http://www.w3.org/1999/xlink" version="1.1" x="0px" y="0px" viewBox="0 0 100 100" enable-background="new 0 0 100 100" xml:space="preserve"><g><path d="M31.726,23.961c-1.379,1.38-1.702,3.215-1.711,4.594c-2.07,0.175-3.414,1.402-3.954,2.275   c-0.429,0.694-0.215,1.589,0.469,2.033c0.248,0.161,0.527,0.237,0.805,0.237c0.488,0,0.969-0.237,1.262-0.667   c0.086-0.125,0.885-1.217,2.748-0.803c0.504,0.11,1.027-0.046,1.39-0.412c0.363-0.366,0.512-0.896,0.396-1.398   c-0.006-0.024-0.533-2.488,0.718-3.739c0.585-0.586,0.585-1.536,0-2.122C33.262,23.375,32.312,23.375,31.726,23.961z"></path><path d="M40.373,36.67c-0.946,0.945-1.254,2.135-1.318,3.12c-1.387,0.25-2.303,1.115-2.692,1.745   c-0.436,0.705-0.23,1.648,0.474,2.084c0.251,0.155,0.529,0.23,0.801,0.23c0.493,0,0.971-0.244,1.251-0.697   c0.102-0.141,0.504-0.583,1.441-0.375c0.504,0.113,1.033-0.043,1.396-0.414c0.363-0.369,0.509-0.9,0.388-1.403   c-0.003-0.014-0.305-1.483,0.38-2.168c0.586-0.585,0.586-1.536,0-2.121C41.908,36.084,40.959,36.084,40.373,36.67z"></path><path d="M50.536,6.47C26.534,6.47,7.006,25.998,7.006,50c0,24.003,19.527,43.53,43.53,43.53c24.003,0,43.53-19.527,43.53-43.53   C94.066,25.998,74.539,6.47,50.536,6.47z M50.536,90.53c-5.482,0-10.711-1.1-15.485-3.081c0.09,0.001,0.169,0.007,0.262,0.007   c2.576,0,3.934-0.543,5.132-1.022c1.083-0.434,2.02-0.808,4.018-0.808c1.998,0,2.933,0.374,4.016,0.808   c1.197,0.479,2.555,1.022,5.13,1.022c2.577,0,3.935-0.543,5.133-1.022c1.084-0.434,2.021-0.808,4.021-0.808   s2.937,0.374,4.021,0.808c0.261,0.104,0.532,0.211,0.819,0.315C62.412,89.17,56.631,90.53,50.536,90.53z M71.849,84.454   c-1.95-0.009-2.881-0.377-3.952-0.806c-1.198-0.479-2.557-1.022-5.134-1.022s-3.936,0.543-5.134,1.022   c-1.084,0.434-2.021,0.808-4.02,0.808c-1.998,0-2.933-0.374-4.016-0.808c-1.197-0.479-2.555-1.022-5.13-1.022   c-2.577,0-3.935,0.543-5.132,1.022c-1.083,0.434-2.019,0.808-4.018,0.808c-1.998,0-2.933-0.374-4.016-0.808   c-1.136-0.455-2.43-0.962-4.759-1.013c-1.272-0.938-2.486-1.951-3.639-3.028c0.996,0.198,1.762,0.498,2.583,0.826   c1.502,0.601,3.205,1.282,6.43,1.282c3.227,0,4.929-0.681,6.432-1.282c1.432-0.572,2.669-1.067,5.318-1.067   c2.647,0,3.884,0.495,5.316,1.067c1.502,0.602,3.205,1.282,6.43,1.282c3.228,0,4.931-0.681,6.434-1.282   c1.433-0.572,2.671-1.067,5.32-1.067s3.888,0.495,5.32,1.067c0.972,0.389,2.034,0.808,3.53,1.058   C74.69,82.563,73.3,83.553,71.849,84.454z M79.09,78.733c-0.058-0.007-0.114-0.018-0.174-0.018c-2.649,0-3.888-0.495-5.32-1.067   c-1.503-0.602-3.206-1.282-6.434-1.282s-4.931,0.681-6.434,1.282c-1.433,0.572-2.671,1.067-5.32,1.067   c-2.647,0-3.884-0.495-5.316-1.067c-1.502-0.602-3.205-1.282-6.43-1.282c-3.227,0-4.929,0.681-6.432,1.282   c-1.432,0.572-2.669,1.067-5.318,1.067c-2.647,0-3.884-0.495-5.316-1.067c-1.502-0.602-3.205-1.282-6.43-1.282   c-0.117,0-0.229,0.017-0.338,0.041c-0.665-0.771-1.305-1.564-1.911-2.385h65.237C81.92,75.695,80.562,77.271,79.09,78.733z    M24.331,71.022h-4.196l9.586-9.869l2.165,1.8L24.331,71.022z M38.402,60.384L48.891,71.01c-0.001,0.004-0.001,0.008-0.002,0.013   H28.442L38.402,60.384z M52.924,70.825L64.26,59.343l10.935,11.68H53.119L52.924,70.825z M78.969,71.022   c-0.053-0.264-0.151-0.52-0.349-0.73l-7.846-8.38l2.166-1.8l10.597,10.91H78.969z M74.125,57.026   c-0.547-0.563-1.434-0.609-2.035-0.108l-3.369,2.801l-3.338-3.565c-0.278-0.298-0.667-0.469-1.075-0.475   c-0.366-0.019-0.8,0.155-1.087,0.446L50.817,68.69L39.44,57.166c-0.286-0.291-0.668-0.444-1.087-0.446   c-0.408,0.006-0.796,0.177-1.075,0.475l-3.337,3.564l-3.369-2.8c-0.603-0.501-1.489-0.454-2.035,0.108L15.953,71.022h-0.021   c-0.012,0-0.022,0.003-0.034,0.003C12.161,64.892,10.006,57.693,10.006,50c0-22.348,18.182-40.53,40.53-40.53   c22.349,0,40.53,18.182,40.53,40.53c0,7.016-1.793,13.619-4.943,19.38L74.125,57.026z"></path><path d="M64.319,28.255c-3.659,0-6.636,2.977-6.636,6.637c0,3.659,2.977,6.636,6.636,6.636s6.636-2.977,6.636-6.636   C70.955,31.232,67.979,28.255,64.319,28.255z M64.319,38.527c-2.005,0-3.636-1.631-3.636-3.636c0-2.005,1.631-3.637,3.636-3.637   s3.636,1.631,3.636,3.637C67.955,36.896,66.324,38.527,64.319,38.527z"></path></g></svg>