<svg height='100px' width='100px'  fill="#040a0c" xmlns:x="http://ns.adobe.com/Extensibility/1.0/" xmlns:i="http://ns.adobe.com/AdobeIllustrator/10.0/" xmlns:graph="http://ns.adobe.com/Graphs/1.0/" xmlns="http://www.w3.org/2000/svg" xmlns:xlink="http://www.w3.org/1999/xlink" xmlns:a="http://ns.adobe.com/AdobeSVGViewerExtensions/3.0/" version="1.1" x="0px" y="0px" viewBox="0 0 100 100" enable-background="new 0 0 100 100" xml:space="preserve"><path d="M43.77,48.705c-0.514-0.14-1.059-0.066-1.518,0.2c-0.459,0.265-0.794,0.702-0.932,1.214L38.408,60.99  c-0.7,2.611-1.04,5.169-1.023,7.638c-0.726-0.079-1.464-0.114-2.213-0.084c-4.652,0.184-8.876,2.484-11.56,6.23  c-0.729-0.104-1.468-0.143-2.205-0.112C14.693,74.928,9.446,80.606,9.71,87.32c0.043,1.103,0.971,1.954,2.077,1.92  c1.104-0.043,1.963-0.973,1.92-2.077c-0.177-4.51,3.348-8.325,7.858-8.504c0.832-0.031,1.66,0.061,2.465,0.277  c0.871,0.233,1.794-0.146,2.249-0.927c1.903-3.275,5.286-5.319,9.051-5.468c5.449-0.224,10.297,3.688,11.23,9.082  c0.109,0.632,0.515,1.172,1.09,1.455c0.576,0.283,1.251,0.272,1.817-0.028c0.771-0.409,1.593-0.632,2.448-0.664  c2.56-0.099,4.906,1.534,5.686,3.979c0.19,0.597,0.649,1.07,1.24,1.278c0.59,0.207,1.245,0.127,1.768-0.217  c0.099-0.065,0.221-0.129,0.335-0.194c0.271-0.126,0.545-0.26,0.824-0.402c3.366-1.399,10.173-1.917,14.153,3.849  c0.388,0.562,1.013,0.864,1.648,0.864c0.392,0,0.788-0.115,1.134-0.354c0.909-0.627,1.137-1.873,0.51-2.782  c-2.964-4.293-7.086-6.055-10.996-6.414c2.513-2.684,4.758-6.354,6.104-11.378l2.913-10.871c0.286-1.067-0.348-2.164-1.415-2.449  l-10.229-2.74l9.099-33.959l2.416,0.647c3.199,0.858,6.492-1.047,7.348-4.243c0.415-1.548,0.202-3.165-0.599-4.553  c-0.802-1.388-2.096-2.381-3.644-2.795L63.789,5.248c-3.191-0.854-6.492,1.048-7.348,4.244c-0.415,1.548-0.202,3.165,0.6,4.553  c0.801,1.388,2.095,2.381,3.643,2.795l2.415,0.647l-9.1,33.959L43.77,48.705z M72.852,60.638l-2.395,8.939  c-1.67,6.231-5.053,10.727-10.037,13.424c-1.814-2.931-5.12-4.771-8.66-4.614c-0.628,0.023-1.245,0.107-1.85,0.25  c-1.414-4.111-4.549-7.351-8.469-8.97c-0.141-2.432,0.12-4.991,0.83-7.642l2.395-8.939l8.398,2.25  c-0.026,0.125-0.053,0.252-0.082,0.387c-0.149,0.704-0.324,1.524-0.511,2.404l-0.044,0.204L52.4,58.5  c-0.021,0.128-0.054,0.326-0.066,0.452c-0.032,0.275-0.05,0.54-0.063,0.802c-0.025,0.525-0.025,1.041-0.01,1.554  c0.07,2.048,0.354,4.051,0.922,5.618c0.282,0.777,0.67,1.471,1.176,1.933c0.514,0.476,1.06,0.556,1.036,0.56  c0.534,0.143,1.082-0.173,1.225-0.707c0.143-0.534-0.173-1.082-0.707-1.225c-0.007-0.017,0.013,0.006-0.079-0.115  c-0.095-0.129-0.288-0.518-0.407-1.12c-0.255-1.195-0.275-3.054-0.073-4.83c0.051-0.444,0.115-0.885,0.196-1.297  c0.04-0.206,0.084-0.405,0.133-0.585c0.055-0.172,0.109-0.342,0.162-0.509c0.278-0.855,0.538-1.653,0.76-2.337  c0.445-1.369,0.741-2.281,0.741-2.281c0.021-0.065,0.04-0.134,0.055-0.203c0-0.001,0-0.001,0-0.002l2.335-8.713l3.864,1.036  l-2.39,8.917c-0.138,0.512-0.065,1.058,0.2,1.518s0.702,0.794,1.214,0.932L72.852,60.638z M66.065,14.141l-4.347-1.166  c-0.516-0.138-0.947-0.469-1.214-0.931c-0.267-0.463-0.338-1.001-0.2-1.518c0.285-1.065,1.383-1.7,2.45-1.415l16.421,4.401  c0.516,0.138,0.947,0.469,1.214,0.932s0.338,1.002,0.2,1.518c-0.286,1.065-1.382,1.698-2.45,1.414l-4.347-1.165  c-0.512-0.139-1.058-0.066-1.518,0.2c-0.459,0.265-0.794,0.702-0.932,1.214l-6.71,25.043l-3.864-1.036l6.71-25.042  C67.766,15.523,67.132,14.426,66.065,14.141z"></path></svg>